<?xml version="1.0" encoding="UTF-8"?>
<svg id="a" data-name="Logo - CTDefense" xmlns="http://www.w3.org/2000/svg" viewBox="0 0 3530.66 807.28">
  <defs>
    <style>
      .e {
        fill: #fff;
      }
    </style>
  </defs>
  <g id="b" data-name="Logo">
    <path id="c" data-name="Icon" class="e" d="M342.17,71.47c-83.91,40.54-166.12,84.48-250.46,124.13v184.9l77.95,41.89v-92.45l341.34,183.12c4.73,3.14,11.22,10.07,2.01,21.42,0,0,0,0,0,0-5.9,7.24-14.51,13.87-19.31,17.88-13.86,11.57-30.86,23.33-45.84,33.58-32.63,22.33-66.81,43.13-102.58,60.03-39.33-19.97-78.91-41.65-115.45-66.4-13.24-8.97-26.59-18.27-38.75-28.83-.68-.67-1.5-1.39-2.44-2.15-2.82-2.52-5.55-5.13-8.22-7.81-8.3-8.81-10.71-17.9-11.37-23.3l-.19-4.88h0s0,0,0,0l-1.03-26.97-76.15-41.16v84.63s.59,13.24,3.81,24.18l.06.31c.14.43.29.85.43,1.27.12.37.24.73.37,1.09.03.1.07.2.1.3,0,0,0,.02,0,.03,0,0,0,.01,0,.02,9.5,26.48,30.92,44.01,52.29,61.05,59.79,47.69,129.04,85.13,197.68,118.46,39.35-18.57,77.75-39.86,114.66-62.9,35.74-22.32,107.82-68.45,127.92-110.31,3.19-5.96,3.73-15.19,3.73-15.19l1.24-79.55L176.89,245.42l163.89-83.55s.03,0,.04,0c.21-.11.42-.22.62-.33l9.02,4.26-9.65-3.93,175.31,83.56v113.57l79.03,37.12.17-10.97v-188.91c-84.75-40.87-167.98-84.82-253.16-124.76Z"/>
    <g id="d" data-name="CTDefense">
      <path class="e" d="M1076.78,563.22c-1.51-8.79-10.27-14.52-18.85-12.11-5.51,1.55-11.27,2.8-17.26,3.77-12,1.94-23.21,2.9-33.66,2.9-29.4,0-50-7.54-61.8-22.63-11.8-15.09-17.7-36.36-17.7-63.83,0-25.91,6.28-46.81,18.86-62.67,12.57-15.86,31.62-23.79,57.16-23.79,11.99,0,22.82,1.16,32.5,3.48,4.12.99,8.1,2.05,11.94,3.18,8.16,2.4,16.68-2.43,18.82-10.67l10.53-40.41c1.98-7.62-2.23-15.47-9.66-18.08-8.63-3.03-17.44-5.5-26.41-7.43-13.55-2.9-28.43-4.35-44.68-4.35-24.76,0-46.81,4.26-66.15,12.77-19.35,8.51-35.79,20.02-49.32,34.52-13.55,14.51-23.89,31.53-31.05,51.07-7.16,19.54-10.74,40.33-10.74,62.38s2.99,44.01,9,63.54c5.99,19.54,15.47,36.47,28.43,50.78,12.96,14.32,29.49,25.63,49.61,33.94,20.11,8.32,44.1,12.48,71.96,12.48,18.18,0,34.82-1.55,49.91-4.64,9.46-1.94,17.92-4.11,25.4-6.5,7.14-2.28,11.46-9.52,10.18-16.91l-7.02-40.79Z"/>
      <path class="e" d="M1325.72,564.68c-1.54-8.53-9.96-14.08-18.37-11.98-3.74.94-7.62,1.76-11.65,2.47-9.86,1.74-19.44,2.61-28.72,2.61-19.35,0-32.21-5.41-38.59-16.25-6.38-10.83-9.58-25.33-9.58-43.52v-92.27c0-8.33,6.75-15.09,15.09-15.09h73.7c8.33,0,15.09-6.75,15.09-15.09v-41.78c0-8.33-6.75-15.09-15.09-15.09h-73.7c-8.33,0-15.09-6.75-15.09-15.09v-57.14c0-9.29-8.31-16.37-17.49-14.9l-56.29,9.06c-7.31,1.18-12.69,7.49-12.69,14.9v243.64c0,19.73,1.83,37.72,5.51,53.97,3.67,16.25,10.16,30.08,19.44,41.49,9.29,11.41,21.66,20.31,37.14,26.69,15.47,6.38,35.01,9.57,58.61,9.57,18.57,0,34.24-1.55,47-4.64,7.99-1.93,15.52-4.1,22.6-6.49,7.07-2.39,11.29-9.63,9.96-16.98l-6.9-38.11Z"/>
      <path class="e" d="M1624.36,176.45l-56.29,9.07c-7.31,1.18-12.69,7.49-12.69,14.9v103.53c0,10.07-9.73,17.45-19.35,14.47-3.14-.97-6.26-1.84-9.38-2.6-9.49-2.32-20.22-3.48-32.21-3.48-21.67,0-40.91,3.68-57.74,11.03-16.83,7.35-31.05,17.99-42.65,31.91-11.61,13.93-20.51,30.85-26.69,50.78-6.19,19.93-9.29,42.27-9.29,67.02s3.57,46.33,10.74,65.86c7.15,19.54,17.5,36.18,31.05,49.91,13.54,13.74,30.17,24.28,49.9,31.63,19.73,7.34,42.16,11.02,67.31,11.02,10.45,0,21.37-.49,32.79-1.45,11.41-.97,22.63-2.23,33.66-3.77,11.03-1.55,21.56-3.38,31.63-5.51,5.43-1.15,10.52-2.33,15.28-3.53,6.71-1.7,11.41-7.72,11.41-14.64V191.34c0-9.29-8.32-16.37-17.49-14.9ZM1555.38,541.66c0,7.79-5.93,14.27-13.69,15.02-.83.08-1.68.16-2.56.24-6.58.58-13.74.87-21.47.87-23.6,0-41.4-8.12-53.39-24.37-12-16.25-17.99-37.72-17.99-64.41,0-55.71,20.5-83.56,61.51-83.56,8.9,0,17.7,1.16,26.4,3.48,4.47,1.19,8.5,2.54,12.11,4.03,5.55,2.31,9.07,7.83,9.07,13.84v134.86Z"/>
      <path class="e" d="M1825.92,310.58c-18.57,0-36.66,3.48-54.26,10.44-17.61,6.96-33.18,17.22-46.71,30.75-13.55,13.55-24.47,30.47-32.79,50.78-8.32,20.31-12.48,44.01-12.48,71.09,0,22.44,3.19,43.33,9.58,62.67,6.38,19.35,16.25,36.08,29.59,50.2,13.35,14.13,30.17,25.24,50.49,33.36,20.31,8.13,44.19,12.19,71.67,12.19,10.83,0,21.66-.58,32.5-1.74,10.83-1.16,20.98-2.61,30.46-4.35,9.48-1.74,18.08-3.77,25.82-6.09,2.35-.71,4.56-1.41,6.63-2.12,6.97-2.38,11.18-9.46,9.98-16.73l-6.7-40.56c-1.48-8.96-10.45-14.52-19.17-12-6.34,1.83-13.4,3.49-21.19,4.97-15.29,2.9-30.86,4.35-46.71,4.35-24.76,0-44.49-5.22-59.19-15.67-7.87-5.59-13.92-12.24-18.13-19.94-5.52-10.09,1.7-22.43,13.2-22.43h162.09c7.94,0,14.53-6.14,15.05-14.07.04-.62.08-1.25.12-1.89.38-5.99.58-11.51.58-16.54,0-51.45-12.58-90.42-37.72-116.93-25.15-26.49-59.39-39.75-102.71-39.75ZM1865.14,440.57h-77.48c-10.29,0-17.6-10.08-14.34-19.84.21-.64.43-1.28.66-1.92,2.51-7.15,6.09-13.44,10.74-18.86,4.64-5.41,10.45-9.76,17.41-13.06,6.96-3.28,15.28-4.93,24.95-4.93s18.47,1.74,25.24,5.22c6.76,3.48,12.38,7.93,16.83,13.35,4.44,5.42,7.74,11.61,9.87,18.57.23.76.45,1.51.66,2.28,2.66,9.65-4.53,19.2-14.53,19.2Z"/>
      <path class="e" d="M2219.23,184.95c-5.17-1.57-11.1-3.17-17.77-4.8-13.55-3.28-28.43-4.93-44.68-4.93-43.72,0-76.7,11.61-98.94,34.82-22.25,23.21-33.37,54.55-33.37,94.01v306.39c0,8.33,6.75,15.09,15.09,15.09h56.29c8.33,0,15.09-6.75,15.09-15.09v-203.1c0-8.33,6.75-15.09,15.09-15.09h76.6c8.33,0,15.09-6.75,15.09-15.09v-41.78c0-8.33-6.75-15.09-15.09-15.09h-76.6c-8.33,0-15.09-6.75-15.09-15.09s.87-15.67,2.61-22.63c1.74-6.96,4.64-12.96,8.7-17.99,4.06-5.02,9.67-8.99,16.83-11.89,7.15-2.9,15.96-4.35,26.4-4.35,7.73,0,16.15.87,25.24,2.61,3.63.7,7.15,1.53,10.57,2.51,8.18,2.33,16.63-2.71,18.65-10.97l9.63-39.51c1.9-7.8-2.65-15.69-10.33-18.03Z"/>
      <path class="e" d="M2379.99,310.58c-18.57,0-36.66,3.48-54.26,10.44-17.61,6.96-33.18,17.22-46.71,30.75-13.55,13.55-24.47,30.47-32.79,50.78-8.32,20.31-12.48,44.01-12.48,71.09,0,22.44,3.19,43.33,9.58,62.67,6.38,19.35,16.25,36.08,29.59,50.2,13.35,14.13,30.17,25.24,50.49,33.36,20.31,8.13,44.19,12.19,71.67,12.19,10.83,0,21.66-.58,32.5-1.74,10.83-1.16,20.98-2.61,30.46-4.35,9.48-1.74,18.08-3.77,25.82-6.09,2.35-.71,4.56-1.41,6.63-2.12,6.97-2.38,11.18-9.46,9.98-16.73l-6.7-40.56c-1.48-8.96-10.45-14.52-19.17-12-6.34,1.83-13.4,3.49-21.19,4.97-15.29,2.9-30.86,4.35-46.71,4.35-24.76,0-44.49-5.22-59.19-15.67-7.87-5.59-13.92-12.24-18.13-19.94-5.52-10.09,1.7-22.43,13.2-22.43h162.09c7.94,0,14.53-6.14,15.05-14.07.04-.62.08-1.25.12-1.89.38-5.99.58-11.51.58-16.54,0-51.45-12.58-90.42-37.72-116.93-25.15-26.49-59.39-39.75-102.71-39.75ZM2419.21,440.57h-77.48c-10.29,0-17.6-10.08-14.34-19.84.21-.64.43-1.28.66-1.92,2.51-7.15,6.09-13.44,10.74-18.86,4.64-5.41,10.45-9.76,17.41-13.06,6.96-3.28,15.28-4.93,24.95-4.93s18.47,1.74,25.24,5.22c6.76,3.48,12.38,7.93,16.83,13.35,4.44,5.42,7.74,11.61,9.87,18.57.23.76.45,1.51.66,2.28,2.66,9.65-4.53,19.2-14.53,19.2Z"/>
      <path class="e" d="M2807.86,350.62c-10.06-12.37-23.7-21.95-40.91-28.72-17.22-6.76-38.79-10.15-64.7-10.15s-49.91,1.84-73.12,5.51c-17.56,2.78-32.69,5.73-45.38,8.84-6.75,1.66-11.49,7.7-11.49,14.66v268.1c0,8.33,6.75,15.09,15.09,15.09h56.29c8.33,0,15.09-6.75,15.09-15.09v-207.08c0-7.78,5.89-14.28,13.63-15.02,1.6-.15,3.24-.3,4.94-.44,6.96-.58,13.54-.87,19.73-.87,20.11,0,33.85,5.8,41.2,17.41,7.34,11.6,11.03,31.33,11.03,59.19v146.81c0,8.33,6.75,15.09,15.09,15.09h56.29c8.33,0,15.09-6.75,15.09-15.09v-157.26c0-20.89-2.13-39.84-6.38-56.87-4.26-17.02-11.42-31.71-21.47-44.1Z"/>
      <path class="e" d="M3100.54,480.65c-7.16-7.91-16.93-15.28-29.3-22.11-12.39-6.82-28.05-13.74-47-20.77-9.29-3.5-16.93-6.72-22.92-9.65-6-2.92-10.74-5.64-14.22-8.16-3.48-2.51-5.8-5.12-6.96-7.83-1.16-2.7-1.74-5.8-1.74-9.28,0-15.09,13.54-22.63,40.62-22.63,14.7,0,27.94,1.36,39.75,4.06,6.03,1.39,11.84,2.87,17.41,4.46,8.38,2.38,17.05-2.67,18.96-11.18l8.51-37.95c1.75-7.79-2.85-15.62-10.53-17.8-7.76-2.2-16.79-4.3-27.09-6.3-17.03-3.28-34.82-4.93-53.39-4.93-37.14,0-66.35,8.32-87.62,24.95-21.28,16.64-31.92,39.27-31.92,67.9,0,14.7,2.12,27.27,6.38,37.72,4.25,10.44,10.25,19.44,17.99,26.98,7.74,7.54,17.12,14.02,28.14,19.44,11.03,5.42,23.3,10.64,36.85,15.67,17.41,6.58,30.37,12.48,38.88,17.7,8.51,5.22,12.77,11.31,12.77,18.28,0,8.9-3.29,14.9-9.86,17.99-6.58,3.1-17.8,4.64-33.66,4.64s-30.37-1.64-45.84-4.93c-9.93-2.11-19.7-4.74-29.31-7.88-8.56-2.8-17.64,2.45-19.47,11.27l-8.36,40.44c-1.57,7.58,2.85,15.1,10.23,17.44,6.54,2.07,14.73,4.38,24.56,6.92,17.99,4.64,40.52,6.96,67.6,6.96,41.39,0,73.41-7.72,96.04-23.16,22.63-15.44,33.95-38.22,33.95-68.33,0-12.73-1.45-23.93-4.35-33.57-2.9-9.65-7.93-18.43-15.09-26.35Z"/>
      <path class="e" d="M3401.23,350.33c-25.15-26.49-59.39-39.75-102.71-39.75-18.57,0-36.66,3.48-54.26,10.44-17.61,6.96-33.17,17.22-46.72,30.75-13.55,13.55-24.47,30.47-32.78,50.78-8.32,20.31-12.48,44.01-12.48,71.09,0,22.44,3.19,43.33,9.58,62.67,6.38,19.35,16.25,36.08,29.59,50.2,13.35,14.13,30.17,25.24,50.49,33.36,20.31,8.13,44.19,12.19,71.66,12.19,10.83,0,21.66-.58,32.49-1.74,10.83-1.16,20.98-2.61,30.47-4.35,9.47-1.74,18.08-3.77,25.82-6.09,2.35-.71,4.56-1.41,6.63-2.12,6.97-2.38,11.18-9.46,9.98-16.73l-6.7-40.56c-1.48-8.96-10.45-14.52-19.17-12-6.34,1.83-13.4,3.49-21.19,4.97-15.29,2.9-30.85,4.35-46.72,4.35-24.76,0-44.5-5.22-59.19-15.67-7.87-5.59-13.92-12.24-18.13-19.94-5.52-10.09,1.7-22.43,13.2-22.43h162.09c7.94,0,14.52-6.14,15.05-14.06.04-.62.08-1.26.13-1.9.38-5.99.58-11.51.58-16.54,0-51.45-12.58-90.42-37.72-116.93ZM3337.74,440.57h-77.48c-10.29,0-17.6-10.08-14.34-19.84.21-.64.43-1.28.66-1.92,2.51-7.15,6.09-13.44,10.73-18.86,4.65-5.41,10.45-9.76,17.41-13.06,6.97-3.28,15.28-4.93,24.95-4.93s18.47,1.74,25.24,5.22c6.77,3.48,12.38,7.93,16.83,13.35,4.44,5.42,7.73,11.61,9.86,18.57.23.75.45,1.51.66,2.27,2.67,9.65-4.52,19.2-14.53,19.2Z"/>
    </g>
  </g>
</svg>