<svg xmlns="http://www.w3.org/2000/svg" xmlns:xlink="http://www.w3.org/1999/xlink" id="Layer_1" x="0px" y="0px" viewBox="0 0 1070 250" style="enable-background:new 0 0 1070 250;" xml:space="preserve">  <style type="text/css">	.st0{fill:#FFFFFF;}</style>  <path class="st0" d="M110.2,245.7c-2.3-0.4-4.5-0.7-6.8-1.2c-2.5-0.6-4.9-1.4-7.4-2.2c-1.4-0.5-1.5-0.8-1.2-2.3 c1.3-5.8,2.6-11.6,3.9-17.3c0.1-0.2,0.2-0.5,0.4-0.9c0.6,0.2,1.2,0.3,1.8,0.5c4.5,1.6,9,2.3,13.8,2.1c6-0.2,11-2.5,14.5-7.5 c1.5-2.1,2.6-4.4,4-6.6c0.7-1.2,0.4-2.2-0.2-3.3c-4.5-9.5-9.2-19-13.5-28.6c-9.1-20.5-16.6-41.6-22.7-63.1c-0.2-0.7-0.3-1.4-0.5-2.1 c0-0.1,0.1-0.2,0.1-0.4c1.4-0.4,22.5-0.6,25.8-0.2c5.9,23.1,13.5,45.8,22.7,67.9c0.2,0,0.3,0,0.5,0c0.3-0.6,0.5-1.3,0.7-1.9 c4.5-12.9,8.3-26,11.7-39.1c2.2-8.3,4.3-16.6,6.4-24.9c0.2-0.7,0.4-1.4,0.6-2.1c8.4,0,16.6,0,25.1,0c-0.1,0.9-0.2,1.6-0.4,2.3 c-5,18.3-10.5,36.4-16.8,54.3c-5.2,14.8-10.9,29.4-17.2,43.7c-2.3,5.1-4.7,10.2-7.9,14.8c-1.5,2.2-3.2,4.4-4.9,6.4 c-6.1,6.9-14,10.4-23.1,11.2c-0.7,0.1-1.4,0.2-2.1,0.4C115.2,245.7,112.7,245.7,110.2,245.7z"></path>  <path class="st0" d="M1067.4,5.3c-1,3.5-2.1,7-3.1,10.6c-6.9,23.9-13.8,47.8-20.7,71.7c-0.2,0.7-0.5,1.3-0.8,2.3 c-0.7-0.8-1.1-1.3-1.5-1.8c-5.7-7.5-11.3-15.1-17-22.5c-0.9-1.2-1.1-2.3-0.6-3.8c4.3-13.5,8.5-27,12.7-40.5c0.2-0.7,0.4-1.5,0.3-2.3 c-0.4,0.6-0.8,1.2-1.1,1.8c-1.7,2.8-3.3,5.7-4.9,8.6c-0.5,1-1.3,1.4-2.4,1.4c-9.5,0-19,0-28.5,0.1c-1.2,0-2-0.4-2.7-1.3 c-5.9-7.9-11.8-15.7-17.7-23.5c-0.4-0.5-0.6-1.2-0.9-1.7c29.7,0,59.3,0,89,0C1067.4,4.5,1067.4,4.9,1067.4,5.3z"></path>  <path class="st0" d="M489.6,218.6c3.6,1.1,6.8,2.2,10.1,3.1c8,2.2,16.1,2.7,24.3,2.1c2.4-0.2,4.8-0.7,7.2-1.4 c5.8-1.6,9.3-5.6,10.8-11.3c0.8-3.1,1.1-6.2,0.8-9.5c-0.8,0.3-1.4,0.4-2,0.7c-6.8,2.7-13.8,3.9-21.1,3.4c-10.5-0.7-19.8-4-27.3-11.7 c-4.6-4.7-7.7-10.4-9.5-16.7c-3.5-11.9-3.7-23.9,0-35.8c5-15.9,16-25.6,32-29.8c5.1-1.3,10.2-1.7,15.5-1.7c12,0,23.7,2.1,35.3,4.9 c0.6,0.2,1.2,0.4,2,0.6c0,0.7,0,1.4,0,2c0,27.6,0,55.2,0,82.8c0,5.5-0.6,11-2,16.4c-3.5,13.2-11.9,21.7-24.9,25.7 c-5.6,1.7-11.4,2.5-17.3,2.8c-12.2,0.5-24-1-35.6-4.8c-2.7-0.9-2.7-0.9-2.1-3.6c1.1-5.3,2.3-10.6,3.4-15.8 C489.2,220.3,489.4,219.5,489.6,218.6z M542.9,132.4c-0.5-0.2-0.9-0.3-1.3-0.4c-5.1-0.9-10.2-1.2-15.3-0.8c-1.6,0.1-3.3,0.5-4.8,0.9 c-7,2-11.3,7-13.8,13.6c-2.4,6.3-2.4,12.9-1.8,19.5c0.3,2.9,0.9,5.7,2.1,8.4c2.5,5.8,6.9,9.5,13,10.8c6.9,1.5,13.6,0.3,20-2.6 c1.4-0.7,2-1.5,2-3.2c-0.1-14.8,0-29.5,0-44.3C542.9,133.7,542.9,133.1,542.9,132.4z"></path>  <path class="st0" d="M227.5,65.4c0,16.4,0,32.6,0,49.1c0.9-0.3,1.6-0.5,2.2-0.8c6.6-2.7,13.5-4,20.6-3.7 c18.1,0.9,30.6,9.7,37.3,26.6c2.5,6.2,3.7,12.8,4.1,19.4c0.5,7.3,0.1,14.5-1.7,21.6c-3,11.7-9.1,21.2-19.4,27.9 c-5.9,3.8-12.4,6-19.4,7c-8.4,1.2-16.8,0.7-25.2-0.3c-7.1-0.8-14.2-2.2-21.1-4.1c-2.2-0.6-2.2-0.6-2.2-3c0-44.4,0-88.8,0-133.2 c0-0.2,0-0.4,0-0.6c0-1.9,0.2-2,1.9-2.3c5-0.8,10-1.6,15-2.5c1.9-0.3,3.8-0.6,5.7-0.9C226,65.5,226.7,65.5,227.5,65.4z M227.7,190.2 c0.7,0.2,1.3,0.4,2,0.5c4.6,0.7,9.3,1.1,14,0.8c8.3-0.5,14.8-4.1,18.9-11.4c1.1-2,2.1-4.3,2.7-6.5c2-7,2-14,0.9-21.1 c-0.6-4.4-2-8.6-4.4-12.4c-2.6-4.1-6.3-6.7-11-7.7c-7.5-1.6-14.5-0.3-21.3,3c-1.4,0.7-2,1.5-2,3.2c0.1,16.6,0,33.2,0,49.8 C227.6,188.8,227.6,189.5,227.7,190.2z"></path>  <path class="st0" d="M778,65.4c0,16.4,0,32.6,0,49.1c0.9-0.3,1.6-0.5,2.2-0.8c7.1-2.9,14.4-4.2,22-3.6c15.4,1.1,27,8.1,34.1,22.1 c3.2,6.4,5,13.3,5.8,20.4c0.9,8.1,0.7,16.2-1.2,24.2c-2.8,11.5-8.5,21.1-18.4,27.9c-6.2,4.3-13.1,6.7-20.5,7.8 c-8.5,1.3-17,0.7-25.4-0.3c-7-0.8-13.9-2.1-20.7-4c-0.5-0.1-1.1-0.2-1.5-0.5s-0.7-0.7-0.9-1.1c-0.2-0.6-0.1-1.2-0.1-1.8 c0-44.2,0-88.4,0-132.7c0-2.8,0-2.8,2.8-3.3c6.6-1.1,13.2-2.2,19.9-3.3C776.7,65.5,777.2,65.5,778,65.4z M778.1,190.2 c0.9,0.2,1.6,0.4,2.3,0.5c4.5,0.7,9,1,13.6,0.8c9.1-0.4,15.9-4.7,20-12.9c0.9-1.8,1.5-3.6,2.1-5.5c1.7-6.3,1.8-12.7,1-19.2 c-0.6-4.7-1.8-9.3-4.3-13.4c-2.6-4.4-6.4-7.1-11.4-8.2c-7.5-1.6-14.6-0.3-21.5,3.1c-1.4,0.7-1.8,1.5-1.8,3.1c0.1,16.6,0,33.2,0,49.8 C778.1,188.8,778.1,189.5,778.1,190.2z"></path>  <path class="st0" d="M394.2,169.5c-21,0-42,0-63.1,0c0.1,1.1,0.2,1.9,0.3,2.7c2.1,10.4,8.6,16.7,19,18.5c8.8,1.5,17.5,0.8,26-1.4 c2.4-0.6,4.8-1.5,7.2-2.2c0.4-0.1,0.9-0.3,1.6-0.5c0.2,0.8,0.4,1.4,0.5,2.1c0.9,5.3,1.7,10.5,2.5,15.8c0.4,2.5,0.4,2.5-1.9,3.5 c-4.2,1.7-8.5,2.7-12.9,3.5c-6.2,1.1-12.4,1.8-18.7,1.6c-7.3-0.2-14.4-1.2-21.2-4c-11.7-4.8-19.9-13-24.2-24.9 c-5.2-14.6-5.3-29.5-0.3-44.2c2.3-6.7,5.9-12.6,11-17.6c7.2-7.2,16-11.2,26.1-12.5c7.4-0.9,14.6-0.3,21.6,2.2 c12.2,4.2,19.9,12.9,23.9,25c2.5,7.6,3.3,15.4,3.2,23.4c0,2.3-0.2,4.6-0.3,6.9C394.5,168.2,394.4,168.7,394.2,169.5z M369.9,150.7 c0.6-4.2-1.5-10.4-4.7-14.2c-1.8-2.1-4-3.8-6.7-4.7c-7.8-2.6-17.3-1-22.9,7.3c-2.1,3.2-3.3,6.7-4,10.4c-0.1,0.4,0,0.8,0,1.2 C344.4,150.7,357.2,150.7,369.9,150.7z"></path>  <path class="st0" d="M910.4,150.7c0-4.7-0.2-9.3-2.9-13.3c-2.8-4.2-7-5.9-11.8-6.3c-9.4-0.7-18.5,0.3-27.5,3.1 c-0.6,0.2-1.1,0.3-1.8,0.5c-0.2-0.6-0.4-1.1-0.5-1.5c-0.9-5.5-1.7-11.1-2.5-16.6c-0.3-2.1-0.3-2.2,1.8-2.7 c5.1-1.2,10.3-2.4,15.4-3.2c5.7-1,11.5-1.1,17.3-0.8c5.9,0.3,11.6,1.2,17.1,3.6c9.4,4,15.1,11.2,17.5,21c1.1,4.4,1.6,8.9,1.6,13.5 c0,19.4,0,38.7,0,58.1c0,0.1,0,0.3,0,0.4c0,2,0,2.1-2,2.4c-5.1,0.9-10.2,1.8-15.4,2.6c-8.2,1.2-16.4,1.6-24.6,1.5 c-6.4-0.1-12.8-0.8-18.8-3c-11.3-4.1-17.7-12.1-19.1-24.1c-0.6-5-0.4-10,1-14.9c1.9-6.1,5.6-10.8,10.9-14.4c4.8-3.2,10.1-5,15.8-6 c8.9-1.6,17.8-1.6,26.7,0.2c0.3,0.1,0.7,0.1,1,0.1C909.7,150.8,909.9,150.8,910.4,150.7z M910.3,192c0-7.8,0-15.3,0-22.8 c-0.6-0.2-1.1-0.4-1.6-0.5c-5.1-1.1-10.2-1.2-15.3-0.7c-3,0.2-6,0.8-8.7,2.2c-2.8,1.4-4.9,3.5-5.7,6.7c-0.7,2.8-0.5,5.6,0.4,8.4 c0.7,2.2,2.1,3.9,4.2,5c2,1.1,4.2,1.8,6.5,2.1c4.8,0.7,9.6,0.4,14.4,0.2C906.3,192.4,908.2,192.2,910.3,192z"></path>  <path class="st0" d="M706.2,130c1-0.1,1.7-0.1,2.4-0.1c4.9-0.6,9.8-1.1,14.7-1.7c1.5-0.2,2.3,0.3,3.1,1.5c4.1,6.3,6.7,13.1,7.9,20.5 c1.7,10.8,1.3,21.4-2.2,31.8c-5.1,15-15,25.3-30.4,29.6c-12.1,3.4-24,2.6-35.4-2.9c-9.3-4.6-16.2-11.7-20.4-21.2 c-7.5-16.9-7.8-34.1-0.3-50.9c7-15.6,19.5-24.3,36.5-26.3c8.1-1,16,0,23.7,2.9c2,0.8,2.1,0.8,1.9,3c-0.3,3.2-0.7,6.4-1,9.6 C706.5,126.9,706.4,128.3,706.2,130z M665.8,161.3c0,1.5-0.1,3,0,4.5c0.4,5.4,1.5,10.6,4.1,15.3c3.1,5.5,7.6,9.2,14,10.2 c1.9,0.3,3.8,0.3,5.7,0.2c5.5-0.2,10-2.4,13.6-6.7c2.5-3,4.2-6.5,5.2-10.3c2-7.3,2.1-14.7,0.9-22.1c-0.7-4.6-2.2-8.9-4.9-12.8 c-2.2-3.2-5.1-5.6-8.8-7c-10.6-4-21.3,0.3-26.3,10.4c-0.5,0.9-0.9,1.9-1.2,2.9C666.2,150.9,665.6,156.1,665.8,161.3z"></path>  <path class="st0" d="M23.3,163.4c-0.9-0.7-1.5-1.2-2.1-1.7c-4.6-3.5-9.3-7-13.9-10.4c-0.9-0.6-1.4-1.2-1.1-2.5 c3.7-17.1,13-29.6,29.6-36.1c5.1-2,10.4-2.8,15.8-3c9.2-0.3,18.1,1.1,26.7,4.4c0.8,0.3,1.6,0.6,2.5,1.1c-1.6,6.8-3.5,13.4-5.3,20.3 c-0.8-0.3-1.4-0.4-2-0.7c-6.1-2.4-12.5-3.7-19.1-3.4c-2.4,0.1-4.9,0.4-7.2,1c-8,2.1-12.8,7.6-15.2,15.2c-1.9,5.8-2.3,11.9-1.8,18 c0.2,3.2,0.7,6.4,1.7,9.5c0.3,0.9,0.6,1.9,1,2.8c2.9,7.3,8.3,11.5,16,12.9c9.4,1.7,18.5,0.5,27.4-2.6c0.7-0.2,1.5-0.5,2.4-0.8 c0.3,1.8,0.7,3.4,0.9,5c0.8,4.5,1.5,9.1,2.3,13.6c0.3,1.8,0.2,1.9-1.5,2.7c-3.7,1.6-7.6,2.5-11.6,3.2c-8.8,1.6-17.5,1.8-26.3,0.3 c-18.5-3.3-31.7-15.8-35.8-34c-0.3-1.4,0-2.3,1.2-3.2c4.5-3.3,9-6.7,13.5-10.1C21.9,164.5,22.5,164,23.3,163.4z"></path>  <path class="st0" d="M616.2,65.5c0,1,0,1.8,0,2.6c0,36.1,0,72.2,0,108.3c0,2.2,0.1,4.3,0.4,6.5c0.6,3.9,2.8,6.4,6.6,7.6 c1.4,0.4,2.9,0.7,4.4,1c1,0.2,1.9,0.3,3.1,0.5c-0.1,3.5-1,6.8-1.5,10.1c-0.5,3.4-1.1,6.7-1.8,10.3c-1.8,0-3.4,0.1-5,0 c-4.5-0.3-9.1-0.8-13.4-2.3c-1.6-0.5-3.1-1.2-4.6-1.9c-6.1-3-9.9-7.9-11.6-14.5c-1.1-4-1.5-8.2-1.5-12.3c0-36.5,0-73,0-109.5 c0-0.3,0-0.5,0-0.8c0.1-1.6,0.2-1.9,1.7-2.1c7.1-1.2,14.3-2.4,21.4-3.5C615.1,65.5,615.5,65.5,616.2,65.5z"></path>  <path class="st0" d="M994.1,192.1c-1.2,6.9-2.3,13.6-3.4,20.3c-1.8,0-3.5,0.1-5.1,0c-4.1-0.2-8.3-0.8-12.3-2c-0.9-0.3-1.9-0.6-2.8-1 c-8.3-3.2-13.4-9.1-14.9-17.9c-0.5-3-0.9-6.1-0.9-9.2c-0.1-37,0-74,0-111c0-0.6,0.1-1.2,0.1-2c8-1.4,16-2.7,24.3-4 c0.1,0.9,0.1,1.6,0.1,2.3c0,5.1,0,10.1,0,15.2c0,31.1,0,62.2,0,93.3c0,2.2,0.1,4.3,0.4,6.5c0.6,4,2.8,6.8,6.7,7.9 c1.5,0.4,2.9,0.7,4.4,1C991.8,191.8,992.8,191.9,994.1,192.1z"></path>  <path class="st0" d="M436.2,210.8c-8.3,0-16.3,0-24.6,0c0-0.8-0.1-1.6-0.1-2.3c0-17.6,0-35.2,0-52.8c0-11.9,0-23.7,0-35.6 c0-0.5,0-1.1,0-1.6c-0.1-1.1,0.4-1.7,1.5-2c3.5-1,6.9-2.1,10.4-3.1c9.7-2.6,19.7-3.8,29.7-3.3c6,0.3,11.9,1.3,17.7,3 c2,0.6,2,0.6,1.6,2.6c-1.2,5.8-2.4,11.6-3.6,17.4c-0.1,0.4-0.2,0.9-0.4,1.5c-5.3-1.4-10.5-2.7-15.9-3c-5.5-0.3-10.7,0.3-16.2,1.6 c0,1-0.1,2-0.1,2.9c0,24,0,48,0,71.9C436.2,209,436.2,209.8,436.2,210.8z"></path></svg>