<svg xmlns="http://www.w3.org/2000/svg" id="Layer_1" viewBox="0 0 492.4 75.6"><defs><style> .st0 { fill: #07d799; } .st1 { fill: #fff; } .st2 { display: none; } </style></defs><g class="st2"><path class="st0" d="M330.5,35.7c-.9-1-2.2-1.8-3.7-2.4-1.5-.5-3.4-.8-5.6-.8s-3.5.1-5.1.4c-1.6.3-2.8.6-3.7.9h-.3c0,.1.9,6.1.9,6.1l.4-.2c.8-.3,1.8-.5,3-.7,1.2-.2,2.6-.3,4.1-.3s1.9.1,2.6.4c.7.3,1.2.6,1.6,1.1.4.5.7,1,.9,1.6.2.6.3,1.3.3,2.1v.6c-.7-.2-1.4-.3-2.1-.4-.8,0-1.6-.1-2.3-.1-1.6,0-3.1.2-4.5.5-1.5.3-2.8.8-3.9,1.6-1.1.7-2,1.7-2.7,2.8-.7,1.2-1,2.6-1,4.3s.3,3.2.9,4.4c.6,1.2,1.4,2.2,2.4,2.9,1,.7,2.3,1.3,3.7,1.6,1.4.3,3,.5,4.7.5,2.5,0,4.9-.2,6.9-.5,2-.3,3.5-.6,4.6-.8h.3v-17.4c0-1.7-.2-3.2-.6-4.6-.4-1.4-1.1-2.7-2-3.7ZM326,49.9v6.6c-1,.2-2.4.3-4.2.3s-2.8-.3-3.7-.8c-.9-.5-1.3-1.5-1.3-2.9s.2-1.3.5-1.7c.3-.5.7-.8,1.3-1.1.6-.3,1.2-.5,1.9-.6.7-.1,1.4-.2,2.1-.2s1.5,0,2.2.2c.5,0,.9.2,1.2.2Z"></path><path class="st0" d="M356.2,55.3c-.5.2-1.2.4-2.1.7-.9.2-1.9.4-3,.4s-2.7-.4-3.3-1.3c-.7-.9-1-2.4-1-4.6v-11.1h10v-6.2h-10v-8.6l-7.3,1.2v24.7c0,1.9.2,3.6.5,5.1.3,1.5.9,2.8,1.7,3.9.8,1.1,2,1.9,3.4,2.5,1.4.6,3.1.8,5.2.8s3.2-.2,4.4-.5c1.2-.3,2.2-.7,3-1h.3c0-.1-1.2-6-1.2-6l-.4.2Z"></path><path class="st0" d="M370.7,56c-.5-.2-.9-.4-1.2-.7-.3-.3-.5-.7-.6-1.2-.1-.5-.2-1.1-.2-1.9V19.5l-7.3,1.2v32.7c0,1.4.2,2.7.5,3.8.3,1.2.9,2.1,1.7,2.9.8.8,1.9,1.4,3.2,1.8,1.3.4,3,.6,4.9.7h.3s1-6.1,1-6.1h-.4c-.8-.2-1.5-.3-2-.5Z"></path><path class="st0" d="M396,35.7c-.9-1-2.2-1.8-3.7-2.4-1.5-.5-3.4-.8-5.6-.8s-3.5.1-5.1.4c-1.6.3-2.8.6-3.7.9h-.3c0,.1.9,6.1.9,6.1l.4-.2c.8-.3,1.8-.5,3-.7,1.2-.2,2.6-.3,4.1-.3s1.9.1,2.6.4c.7.3,1.2.6,1.6,1.1.4.5.7,1,.9,1.6.2.6.3,1.3.3,2.1v.6c-.7-.2-1.4-.3-2.1-.4-.8,0-1.6-.1-2.3-.1-1.6,0-3.1.2-4.5.5-1.5.3-2.8.8-3.9,1.6-1.1.7-2,1.7-2.7,2.8-.7,1.2-1,2.6-1,4.3s.3,3.2.9,4.4c.6,1.2,1.4,2.2,2.4,2.9,1,.7,2.3,1.3,3.7,1.6,1.4.3,3,.5,4.7.5,2.5,0,4.9-.2,6.9-.5,2-.3,3.5-.6,4.6-.8h.3v-17.4c0-1.7-.2-3.2-.6-4.6-.4-1.4-1.1-2.7-2-3.7ZM391.5,49.9v6.6c-1,.2-2.4.3-4.2.3s-2.8-.3-3.7-.8c-.9-.5-1.3-1.5-1.3-2.9s.2-1.3.5-1.7c.3-.5.7-.8,1.3-1.1.6-.3,1.2-.5,1.9-.6.7-.1,1.4-.2,2.1-.2s1.5,0,2.2.2c.5,0,.9.2,1.2.2Z"></path><path class="st0" d="M426.8,36.3c-.9-1.2-2.2-2.1-3.8-2.7-1.6-.6-3.6-1-5.9-1s-4.7.2-6.7.5c-2,.3-3.7.7-4.9,1h-.3v27.9h7.3v-22.7c.4,0,1-.1,1.6-.2.9-.1,1.7-.2,2.5-.2s2,.1,2.7.4c.7.3,1.2.7,1.6,1.3.4.6.7,1.4.9,2.4.2,1,.3,2.3.3,3.8v15.2h7.3v-16.2c0-1.9-.2-3.7-.6-5.3-.4-1.6-1.1-3.1-2-4.2Z"></path><path class="st0" d="M452.5,55.3c-.5.2-1.2.4-2.1.7-.9.2-1.9.4-3,.4s-2.7-.4-3.3-1.3c-.7-.9-1-2.4-1-4.6v-11.1h10v-6.2h-10v-8.6l-7.3,1.2v24.7c0,1.9.2,3.6.5,5.1.3,1.5.9,2.8,1.7,3.9.8,1.1,2,1.9,3.4,2.5,1.4.6,3.1.8,5.2.8s3.2-.2,4.4-.5c1.2-.3,2.2-.7,3-1h.3c0-.1-1.2-6-1.2-6l-.4.2Z"></path><path class="st0" d="M478.9,39.3c-.4-1.4-1.1-2.7-2-3.7-.9-1-2.2-1.8-3.7-2.4-1.5-.5-3.4-.8-5.6-.8s-3.5.1-5.1.4c-1.6.3-2.8.6-3.7.9h-.3c0,.1.9,6.1.9,6.1l.4-.2c.8-.3,1.8-.5,3-.7,1.2-.2,2.6-.3,4.1-.3s1.9.1,2.6.4c.7.3,1.2.6,1.6,1.1.4.5.7,1,.9,1.6.2.6.3,1.3.3,2.1v.6c-.7-.2-1.4-.3-2.1-.4-.8,0-1.6-.1-2.3-.1-1.6,0-3.1.2-4.5.5-1.5.3-2.8.8-3.9,1.6-1.1.7-2,1.7-2.7,2.8-.7,1.2-1,2.6-1,4.3s.3,3.2.9,4.4c.6,1.2,1.4,2.2,2.4,2.9,1,.7,2.3,1.3,3.7,1.6,1.4.3,3,.5,4.7.5,2.5,0,4.9-.2,6.9-.5,2-.3,3.5-.6,4.6-.8h.3v-17.4c0-1.7-.2-3.2-.6-4.6ZM472.4,49.9v6.6c-1,.2-2.4.3-4.2.3s-2.8-.3-3.7-.8c-.9-.5-1.3-1.5-1.3-2.9s.2-1.3.5-1.7c.3-.5.7-.8,1.3-1.1.6-.3,1.2-.5,1.9-.6.7-.1,1.4-.2,2.1-.2s1.5,0,2.2.2c.5,0,.9.2,1.2.2Z"></path></g><g class="st2"><g id="Logo"><g id="CyberGlobal"><g id="CyberGlobal1" data-name="CyberGlobal"><g id="Text"><path d="M48.8,34.5c-.8,3.3-1.7,6.7-2.6,10.1-.9,3.2-1.8,6.2-2.8,9.1-.5-1.3-1.1-2.6-1.6-4.1-.7-1.7-1.3-3.5-1.9-5.2-.6-1.7-1.1-3.5-1.6-5.2-.5-1.7-.9-3.3-1.3-4.7v-.3h-7.5v.4c1.5,5.1,3.2,9.9,5,14.4,1.8,4.5,3.7,8.6,5.7,12.4-.7,1.5-1.4,2.6-2.3,3.4-.9.7-2.1,1.1-3.6,1.1s-2.4-.2-3.6-.7h-.4c0-.1-1.3,5.6-1.3,5.6h.2c.5.4,1.3.6,2.2.8,1,.2,2,.3,3,.3,1.5,0,2.8-.2,4-.5,1.2-.3,2.2-.9,3.1-1.7.9-.7,1.8-1.7,2.5-2.8.7-1.1,1.5-2.5,2.2-4.1,3.7-8.4,7-17.9,9.8-28.2v-.4c.1,0-7.1,0-7.1,0v.3Z"></path><path d="M81.7,37.6c-1-1.3-2.4-2.3-3.9-3-1.6-.7-3.3-1-5.3-1s-2.5.2-3.6.5c-.8.3-1.6.5-2.3.8v-14l-7,1.2v39.1h.2c1.3.5,2.9.8,4.8,1.1,1.9.3,3.9.5,6,.5s4.2-.3,5.9-1c1.7-.7,3.2-1.7,4.5-3,1.2-1.3,2.2-2.8,2.8-4.6.7-1.8,1-3.8,1-6s-.3-4.1-.8-5.9c-.6-1.8-1.4-3.3-2.4-4.6ZM77.7,48c0,2.7-.6,4.8-1.9,6.3-1.3,1.5-3,2.3-5.2,2.3s-1.8,0-2.5-.1c-.6,0-1.1-.1-1.5-.2v-15.2c.5-.3,1.2-.6,2-.9.9-.3,1.8-.5,2.8-.5,2.2,0,3.8.7,4.8,2.2,1,1.5,1.5,3.6,1.5,6.2Z"></path><path d="M101.7,33.5c-1.6,0-3.3.3-4.8.9-1.6.6-3,1.6-4.2,2.8-1.2,1.2-2.2,2.8-2.9,4.6-.7,1.8-1.1,4-1.1,6.4s.3,4,.9,5.8c.6,1.8,1.5,3.3,2.6,4.6,1.2,1.3,2.7,2.3,4.5,3.1,1.8.7,4,1.1,6.4,1.1s1.9,0,2.8-.2c.9-.1,1.8-.2,2.6-.4.8-.2,1.5-.3,2.1-.5.6-.2,1.1-.4,1.5-.6h.2c0-.1-.9-5.9-.9-5.9l-.4.2c-.7.3-1.7.6-2.9.9-1.2.3-2.6.4-4.1.4-2.5,0-4.4-.6-5.8-1.7-1.2-1.1-2-2.6-2.2-4.5h17.9v-.3c0-.4,0-.8.1-1.2,0-.4,0-.8,0-1.2,0-4.7-1.1-8.3-3.2-10.7-2.2-2.4-5.2-3.6-9-3.6ZM105.6,41.1c.4.5.8,1.2,1,1.9.2.6.3,1.3.3,2h-11c.1-.6.3-1.3.5-1.9.3-.7.6-1.4,1.1-1.9.5-.6,1.1-1,1.7-1.4.7-.3,1.5-.5,2.4-.5s1.6.2,2.3.5c.6.3,1.2.7,1.6,1.3Z"></path><path d="M134.5,34.2c-.5-.1-1.1-.2-1.6-.3-.6,0-1.1-.2-1.7-.2-.6,0-1.1,0-1.5,0-2.2,0-4.3.2-6.1.6-1.8.4-3.4.8-4.6,1.3h-.2v26.6h7v-21.9c.3,0,.8-.2,1.4-.3.8-.1,1.5-.2,2.2-.2,1.2,0,2.2,0,3.1.3.9.2,1.6.4,2.1.5h.4c0,.1,1.2-5.9,1.2-5.9h-.3c-.3-.2-.7-.3-1.3-.4Z"></path><path d="M157.9,34c-1.9-.3-3.8-.5-5.9-.5s-4.1.3-5.8,1c-1.7.7-3.2,1.6-4.4,2.8-1.2,1.2-2.1,2.7-2.7,4.4-.6,1.7-.9,3.6-.9,5.6s.3,4.1.9,5.7c.6,1.7,1.4,3.1,2.5,4.2,1.1,1.1,2.3,2,3.8,2.5,1.5.6,3.1.9,4.9.9s2.6-.2,3.6-.5c.8-.2,1.5-.5,2-.7v.5c0,1.9-.5,3.4-1.5,4.4-1,1-2.8,1.5-5.2,1.5s-3-.1-4.4-.4c-1.3-.3-2.6-.6-3.6-1.1l-.4-.2-1.3,6.1h.3c1.3.6,2.8.9,4.4,1.2,1.6.3,3.3.4,4.9.4,4.6,0,8.1-1,10.4-3.1,2.3-2.1,3.4-5.4,3.4-9.8v-23.9h-.2c-1.3-.4-2.9-.8-4.7-1.1ZM155.9,39.9v13.7c-.5.3-1.2.6-1.9.9-.8.3-1.8.4-2.7.4-1.8,0-3.2-.6-4.3-1.7-1.1-1.2-1.7-3.1-1.7-5.6s.6-4.3,1.8-5.8c1.1-1.4,2.8-2.1,5-2.1s1.8,0,2.5.1c.5,0,1,.1,1.4.2Z"></path><path d="M178.5,56.3c-.5-.2-.9-.4-1.1-.7-.3-.3-.5-.7-.6-1.2-.1-.5-.2-1.1-.2-1.9v-31.6l-7,1.2v31.7c0,1.4.2,2.6.5,3.7.3,1.1.9,2.1,1.6,2.8.8.7,1.8,1.3,3.1,1.7,1.3.4,2.9.6,4.8.6h.3s1-5.8,1-5.8h-.4c-.8-.1-1.5-.3-2-.5Z"></path><path d="M237.5,37.6c-1-1.3-2.4-2.3-3.9-3-1.6-.7-3.3-1-5.3-1s-2.5.2-3.6.5c-.8.3-1.6.5-2.3.8v-14l-7,1.2v39.1h.2c1.3.5,2.9.8,4.8,1.1,1.9.3,3.9.5,6,.5s4.2-.3,5.9-1c1.7-.7,3.2-1.7,4.5-3,1.2-1.3,2.2-2.8,2.8-4.6.7-1.8,1-3.8,1-6s-.3-4.1-.8-5.9c-.6-1.8-1.4-3.3-2.4-4.6ZM233.6,48c0,2.7-.6,4.8-1.9,6.3-1.3,1.5-3,2.3-5.2,2.3s-1.8,0-2.5-.1c-.6,0-1.1-.1-1.5-.2v-15.2c.5-.3,1.2-.6,2-.9.9-.3,1.8-.5,2.8-.5,2.2,0,3.8.7,4.8,2.2,1,1.5,1.5,3.6,1.5,6.2Z"></path><path d="M264.2,36.5c-.9-1-2.1-1.7-3.6-2.3-1.5-.5-3.3-.8-5.4-.8s-3.4.1-5,.4c-1.5.3-2.7.6-3.5.8h-.3c0,0,.9,5.9.9,5.9h.4c.7-.4,1.7-.7,2.9-.9,1.2-.2,2.5-.3,4-.3s1.9.1,2.6.4c.7.3,1.2.6,1.6,1.1.4.5.7,1,.8,1.6.2.6.2,1.3.2,2v.6c-.7-.2-1.4-.3-2.1-.4-.8,0-1.5-.1-2.2-.1-1.5,0-3,.2-4.4.5-1.4.3-2.7.8-3.7,1.5-1.1.7-2,1.6-2.6,2.8-.6,1.1-1,2.5-1,4.1s.3,3.1.8,4.3c.6,1.2,1.4,2.1,2.3,2.8,1,.7,2.2,1.2,3.6,1.6,1.4.3,2.9.5,4.6.5,2.5,0,4.7-.2,6.7-.4,2-.3,3.4-.5,4.4-.8h.3v-16.9c0-1.6-.2-3.1-.6-4.5-.4-1.4-1-2.6-1.9-3.6ZM259.9,50.3v6.5c-1,.2-2.3.3-4.1.3s-2.8-.3-3.6-.8c-.8-.5-1.2-1.4-1.2-2.8s.2-1.3.5-1.7c.3-.5.7-.8,1.3-1.1.5-.3,1.2-.4,1.8-.5.7-.1,1.4-.2,2.1-.2s1.5,0,2.1.2c.5,0,.9.2,1.2.2Z"></path><path d="M283.3,56.7c-.8-.1-1.5-.2-2-.4-.5-.2-.9-.4-1.1-.7-.3-.3-.5-.7-.6-1.2-.1-.5-.2-1.1-.2-1.9v-31.6l-7,1.2v31.7c0,1.4.2,2.6.5,3.7.3,1.1.9,2.1,1.6,2.8.8.7,1.8,1.3,3.1,1.7,1.3.4,2.9.6,4.8.6h.3s1-5.8,1-5.8h-.4Z"></path><path d="M24.5,55.4l-.4.2c-.7.3-1.6.6-2.7.8-1,.2-2.1.3-3.1.3-2.8,0-4.7-.8-5.9-2.2-1.2-1.5-1.8-3.6-1.8-6.2s.6-4.9,1.9-6.3c1.2-1.5,3-2.2,5.4-2.2s2,.1,2.9.3c.9.2,1.7.5,2.4.8l.4.2,1.5-5.8h-.3c-2.3-1.1-4.8-1.5-7.4-1.5s-4.1.4-5.8,1.1c-1.7.7-3.2,1.8-4.4,3.1-1.2,1.3-2.1,2.9-2.8,4.7-.3.8-.5,1.7-.7,2.6l5,3.7-4.8,3.6c.1.6.3,1.1.4,1.7.6,1.8,1.4,3.4,2.6,4.7,1.2,1.3,2.6,2.3,4.4,3.1,1.8.7,3.8,1.1,6.2,1.1s3-.1,4.4-.4c1.4-.3,2.5-.6,3.2-1h.2c0-.1-1-6-1-6Z"></path><path d="M207.5,38.6l-5.4.6.5-4.6c0,0-.2,0-.3-.1-1.7-.7-3.5-1-5.4-1s-3.8.4-5.4,1c-1.6.7-3.1,1.7-4.3,3-1.2,1.3-2.1,2.8-2.8,4.6-.7,1.8-1,3.8-1,6s.3,4.2,1,6c.7,1.8,1.6,3.4,2.8,4.7,1.2,1.3,2.6,2.3,4.2,3,1.6.7,3.5,1.1,5.5,1.1s3.8-.4,5.5-1.1c1.7-.7,3.1-1.7,4.3-3,1.2-1.3,2.1-2.8,2.7-4.7.6-1.8,1-3.8,1-6s-.3-4.2-1-6c-.5-1.3-1.1-2.5-1.8-3.5ZM201.5,54.4c-1.1,1.5-2.6,2.3-4.6,2.3s-3.5-.7-4.6-2.3c-1.1-1.5-1.7-3.7-1.7-6.3s.6-4.7,1.7-6.2c1.1-1.5,2.6-2.2,4.6-2.2s3.5.7,4.6,2.2c1.1,1.5,1.7,3.6,1.7,6.2s-.6,4.8-1.7,6.3Z"></path></g><polygon id="Icon" points="279.1 3.6 284.7 11.1 293.7 11.1 296 7.3 291.8 20.5 297.5 28 304.5 3.6 279.1 3.6"></polygon></g></g></g></g><g><g id="CyberGlobal2" data-name="CyberGlobal"><g id="Text1" data-name="Text"><path class="st1" d="M48.7,34.8c-.8,3.3-1.7,6.7-2.6,10.2-.9,3.2-1.8,6.2-2.8,9.1-.6-1.3-1.1-2.6-1.6-4.1-.7-1.7-1.3-3.5-1.9-5.2-.6-1.8-1.2-3.5-1.6-5.2-.5-1.7-.9-3.3-1.3-4.7v-.3h-7.5v.4c1.6,5.1,3.2,9.9,5,14.5,1.8,4.5,3.7,8.6,5.7,12.4-.7,1.5-1.4,2.6-2.3,3.4-.9.7-2.1,1.1-3.6,1.1s-2.4-.2-3.6-.7h-.4c0-.1-1.3,5.6-1.3,5.6h.2c.5.4,1.3.6,2.2.8,1,.2,2,.3,3,.3,1.5,0,2.8-.2,4-.5,1.2-.3,2.2-.9,3.1-1.7.9-.8,1.8-1.7,2.5-2.8.7-1.1,1.5-2.5,2.2-4.1,3.7-8.4,7-17.9,9.8-28.2v-.4c.1,0-7.1,0-7.1,0v.3h0Z"></path><path class="st1" d="M81.6,37.9c-1-1.3-2.3-2.3-3.9-3-1.6-.7-3.3-1-5.3-1s-2.5.2-3.6.5c-.8.2-1.6.5-2.3.8v-14l-7,1.2v39.2h.2c1.3.5,2.9.8,4.8,1.1,1.9.3,3.9.5,6,.5s4.2-.3,5.9-1c1.8-.7,3.3-1.7,4.5-2.9,1.2-1.3,2.2-2.8,2.8-4.6.7-1.8,1-3.8,1-6s-.3-4.1-.8-5.9c-.6-1.8-1.4-3.3-2.4-4.6h0s0,0,0,0ZM77.6,48.3c0,2.7-.6,4.8-1.9,6.3-1.3,1.5-3,2.3-5.2,2.3s-1.9,0-2.5-.1c-.6,0-1.1-.1-1.5-.2v-15.3c.5-.3,1.2-.6,2-.9.9-.3,1.8-.4,2.8-.4,2.2,0,3.7.7,4.8,2.2,1,1.5,1.5,3.6,1.5,6.2h0Z"></path><path class="st1" d="M101.6,33.7c-1.6,0-3.3.3-4.8.9-1.6.6-3,1.6-4.2,2.8-1.2,1.2-2.2,2.8-2.9,4.6s-1.1,4-1.1,6.4.3,4,.8,5.8c.6,1.8,1.5,3.3,2.6,4.6,1.2,1.3,2.7,2.3,4.5,3.1,1.8.7,4,1.1,6.4,1.1s1.9,0,2.8-.2c.9-.1,1.8-.2,2.6-.4s1.5-.3,2.1-.5c.6-.2,1.1-.4,1.5-.6h.2c0-.1-.9-5.9-.9-5.9l-.4.2c-.7.3-1.7.6-2.9.9-1.2.3-2.6.4-4.1.4-2.5,0-4.5-.6-5.8-1.7-1.2-1.1-2-2.6-2.2-4.5h18v-.3c0-.4,0-.8.1-1.2s0-.8,0-1.2c0-4.7-1.1-8.3-3.2-10.7-2.2-2.4-5.2-3.6-9-3.6h0ZM105.6,41.4c.4.5.8,1.2,1,1.9.2.6.3,1.3.3,2h-11c.1-.6.3-1.3.5-1.9.3-.7.6-1.4,1.1-1.9.5-.6,1.1-1,1.8-1.4.7-.3,1.5-.5,2.4-.5s1.6.2,2.3.5,1.2.7,1.6,1.3h0Z"></path><path class="st1" d="M134.5,34.4c-.5-.1-1.1-.2-1.6-.3s-1.1-.2-1.7-.2c-.6,0-1.1,0-1.5,0-2.2,0-4.3.2-6.2.6-1.8.4-3.4.8-4.6,1.3h-.2v26.6h7v-22c.3,0,.8-.2,1.4-.3.8-.1,1.5-.2,2.2-.2,1.2,0,2.2,0,3.1.3.9.2,1.6.4,2.1.5h.4c0,.1,1.2-5.9,1.2-5.9h-.3c-.3-.2-.7-.3-1.3-.4h0Z"></path><path class="st1" d="M157.9,34.3c-1.9-.3-3.8-.5-5.9-.5s-4.1.3-5.8,1c-1.7.7-3.2,1.6-4.4,2.8-1.2,1.2-2.1,2.7-2.7,4.4-.6,1.7-.9,3.6-.9,5.6s.3,4.1.9,5.7c.6,1.7,1.4,3.1,2.5,4.2,1.1,1.1,2.3,2,3.8,2.5,1.5.6,3.1.9,4.9.9s2.6-.2,3.6-.5c.8-.2,1.5-.5,2-.7v.5c0,2-.5,3.4-1.5,4.4-1,1-2.8,1.5-5.2,1.5s-3.1-.1-4.4-.4c-1.4-.3-2.6-.6-3.6-1.1l-.4-.2-1.3,6.1h.3c1.3.6,2.8.9,4.4,1.2,1.6.3,3.3.4,4.9.4,4.6,0,8.1-1,10.4-3.1,2.3-2.1,3.4-5.4,3.4-9.8v-23.9h-.2c-1.3-.4-2.9-.8-4.7-1.1h0ZM155.9,40.1v13.7c-.5.3-1.2.6-1.9.8-.8.3-1.8.4-2.7.4-1.8,0-3.2-.6-4.3-1.8-1.1-1.2-1.7-3.1-1.7-5.6s.6-4.3,1.8-5.8c1.2-1.4,2.8-2.1,5-2.1s1.8,0,2.5.1c.5,0,1,.1,1.4.2h0Z"></path><path class="st1" d="M178.5,56.6c-.5-.2-.9-.4-1.1-.7-.3-.3-.5-.7-.6-1.2-.1-.5-.2-1.1-.2-1.9v-31.7l-7,1.2v31.7c0,1.4.2,2.6.5,3.7.3,1.1.9,2.1,1.6,2.8s1.8,1.3,3.1,1.7c1.3.4,2.9.6,4.8.6h.3l1-5.9h-.4c-.8-.2-1.5-.3-2-.5h0s0,0,0,0Z"></path><path class="st1" d="M237.6,37.9c-1-1.3-2.3-2.3-3.9-3-1.6-.7-3.3-1-5.3-1s-2.5.2-3.6.5c-.8.2-1.6.5-2.3.8v-14l-7,1.2v39.2h.2c1.3.5,2.9.8,4.8,1.1,1.9.3,3.9.5,6,.5s4.2-.3,5.9-1c1.8-.7,3.3-1.7,4.5-2.9,1.2-1.3,2.2-2.8,2.8-4.6.7-1.8,1-3.8,1-6s-.3-4.1-.8-5.9-1.4-3.3-2.4-4.6h0s0,0,0,0ZM233.6,48.3c0,2.7-.6,4.8-1.9,6.3-1.3,1.5-3,2.3-5.2,2.3s-1.9,0-2.5-.1c-.6,0-1.1-.1-1.5-.2v-15.3c.5-.3,1.2-.6,2-.9.9-.3,1.8-.4,2.8-.4,2.2,0,3.7.7,4.8,2.2,1,1.5,1.5,3.6,1.5,6.2h0Z"></path><path class="st1" d="M264.3,36.8c-.9-1-2.1-1.8-3.5-2.3s-3.3-.8-5.4-.8-3.4.1-5,.4c-1.6.3-2.7.6-3.5.8h-.3c0,0,.9,5.9.9,5.9h.4c.8-.4,1.7-.6,2.9-.9,1.2-.2,2.5-.3,4-.3s1.9.1,2.6.4c.7.3,1.2.6,1.6,1.1s.7,1,.8,1.6c.2.6.2,1.3.2,2v.6c-.7-.2-1.4-.3-2.1-.4-.8,0-1.5-.1-2.2-.1-1.5,0-3,.2-4.4.4-1.4.3-2.7.8-3.7,1.5-1.1.7-2,1.6-2.6,2.7-.6,1.1-1,2.5-1,4.1s.3,3.1.8,4.3c.6,1.2,1.4,2.1,2.3,2.8,1,.7,2.2,1.2,3.6,1.6,1.4.3,2.9.5,4.6.5,2.5,0,4.7-.2,6.7-.4,2-.3,3.4-.6,4.4-.8h.3v-16.9c0-1.6-.2-3.1-.6-4.5-.4-1.4-1-2.6-1.9-3.6h0c0,0,0,0,0,0h0ZM260,50.5v6.5c-1,.2-2.3.3-4.1.3s-2.7-.3-3.6-.8c-.8-.5-1.2-1.4-1.2-2.8s.2-1.3.5-1.7c.3-.4.7-.8,1.3-1.1.5-.3,1.2-.4,1.8-.5.7-.1,1.4-.2,2.1-.2s1.5,0,2.1.2c.5,0,.9.2,1.2.2h0Z"></path><path class="st1" d="M283.4,57c-.8-.1-1.5-.2-2-.4-.5-.2-.9-.4-1.1-.7-.3-.3-.5-.7-.6-1.2-.1-.5-.2-1.1-.2-1.9v-31.7l-7,1.2v31.7c0,1.4.2,2.6.5,3.7.3,1.1.9,2.1,1.6,2.8s1.8,1.3,3.1,1.7c1.3.4,2.9.6,4.8.6h.3l1-5.9h-.4s0,0,0,0h0Z"></path><path class="st1" d="M24.3,55.7l-.4.2c-.7.3-1.6.6-2.7.8-1,.2-2.1.3-3.1.3-2.8,0-4.7-.8-5.9-2.2-1.2-1.5-1.8-3.6-1.8-6.2s.6-4.9,1.9-6.3c1.2-1.5,3-2.2,5.4-2.2s2,.1,2.9.3,1.7.5,2.4.8l.4.2,1.5-5.8h-.3c-2.3-1.1-4.8-1.5-7.4-1.5s-4.1.4-5.8,1.1c-1.7.8-3.2,1.8-4.4,3.1-1.2,1.3-2.1,2.9-2.8,4.7-.3.8-.5,1.7-.7,2.6l5,3.7-4.8,3.6c.1.6.3,1.1.4,1.7.6,1.8,1.4,3.4,2.6,4.7s2.6,2.3,4.4,3.1c1.8.7,3.9,1.1,6.2,1.1s3-.1,4.4-.4c1.4-.3,2.5-.6,3.2-1h.2c0-.1-1-6-1-6h0Z"></path><path class="st1" d="M207.6,38.9l-5.4.6.5-4.6c0,0-.2,0-.3-.1-1.7-.7-3.5-1-5.4-1s-3.8.4-5.4,1c-1.6.7-3.1,1.7-4.3,3-1.2,1.3-2.1,2.8-2.8,4.6-.7,1.8-1,3.8-1,6s.3,4.2,1,6c.7,1.8,1.6,3.4,2.8,4.7,1.2,1.3,2.6,2.3,4.2,3,1.6.7,3.5,1.1,5.5,1.1s3.8-.4,5.5-1.1c1.7-.7,3.1-1.7,4.3-3,1.2-1.3,2.1-2.9,2.7-4.7.6-1.8,1-3.8,1-6s-.3-4.2-1-6c-.5-1.3-1.1-2.5-1.8-3.5h0ZM201.5,54.7c-1.1,1.5-2.6,2.3-4.6,2.3s-3.5-.7-4.6-2.3c-1.1-1.5-1.7-3.7-1.7-6.3s.6-4.7,1.7-6.3c1.1-1.5,2.6-2.2,4.6-2.2s3.5.7,4.6,2.2c1.1,1.5,1.7,3.6,1.7,6.3s-.6,4.8-1.7,6.3Z"></path></g><polygon id="Icon1" data-name="Icon" class="st1" points="279.2 3.9 284.8 11.4 293.8 11.3 296 7.5 291.9 20.7 297.5 28.2 304.6 3.9 279.2 3.9"></polygon></g><g><path class="st0" d="M332.6,37.4c-1-1.3-2.4-2.3-3.9-3-1.6-.7-3.3-1.1-5.3-1.1s-2.5.2-3.7.5c-.9.3-1.8.6-2.4.9v-14.3l-6.9,1.1v39.7h.2c1.3.4,2.9.8,4.8,1.1,1.9.3,4,.5,6.1.5s4.2-.3,6-1c1.8-.7,3.3-1.7,4.5-3,1.2-1.3,2.2-2.9,2.9-4.7.7-1.8,1-3.9,1-6.1s-.3-4.2-.8-6c-.6-1.8-1.4-3.4-2.4-4.7h0ZM328.8,48c0,2.8-.7,5-2,6.5-1.3,1.6-3.1,2.3-5.4,2.3s-1.9,0-2.6-.1c-.6,0-1.2-.2-1.6-.2v-15.7c.5-.4,1.2-.7,2.1-1,.9-.3,1.9-.5,2.9-.5,2.2,0,3.9.8,4.9,2.3,1,1.6,1.6,3.7,1.6,6.3h0Z"></path><path class="st0" d="M360.1,36.4c-.9-1-2.1-1.8-3.6-2.3-1.5-.5-3.3-.8-5.4-.8s-3.5.1-5,.4c-1.6.3-2.8.6-3.6.9h-.2c0,0,.9,5.7.9,5.7h.3c.8-.4,1.8-.6,3-.8s2.6-.3,4.1-.3,2,.1,2.7.4c.7.3,1.2.6,1.7,1.1.4.5.7,1,.9,1.7.2.6.3,1.4.3,2.1v.8c-.8-.2-1.5-.3-2.2-.4-.8,0-1.6-.1-2.3-.1-1.5,0-3,.2-4.4.5-1.4.3-2.7.8-3.8,1.5-1.1.7-2,1.6-2.6,2.8-.6,1.1-1,2.5-1,4.1s.3,3.1.8,4.3c.6,1.2,1.4,2.1,2.3,2.8s2.2,1.3,3.6,1.6c1.4.3,2.9.5,4.6.5,2.5,0,4.8-.2,6.8-.5,2-.3,3.5-.6,4.5-.8h.2v-17.1c0-1.6-.2-3.2-.6-4.5-.4-1.4-1-2.6-1.9-3.6h0ZM355.9,50.2v6.8c-1,.2-2.4.3-4.3.3s-2.8-.3-3.8-.8c-.9-.5-1.3-1.5-1.3-3s.2-1.3.5-1.8c.3-.5.8-.9,1.3-1.1.6-.3,1.2-.5,1.9-.6.7-.1,1.4-.2,2.1-.2s1.5,0,2.2.2c.6,0,1,.2,1.4.3h0Z"></path><path class="st0" d="M389.9,37c-.9-1.1-2.1-2-3.6-2.7-1.5-.6-3.4-1-5.6-1s-1.9,0-2.8.3c-.8.2-1.6.3-2.2.5v-13.7l-6.9,1.1v40.6h6.9v-22.1c.4-.1,1-.3,1.8-.4.9-.2,1.7-.3,2.5-.3s2,.2,2.7.4c.7.3,1.3.7,1.7,1.4.4.6.7,1.5.9,2.5.2,1,.3,2.3.3,3.7v14.8h6.9v-15.8c0-1.9-.2-3.7-.6-5.3-.4-1.6-1-3-1.9-4.1h0Z"></path><path class="st0" d="M415.2,34c-.5-.1-1.1-.2-1.7-.3-.6,0-1.2-.2-1.7-.2-.6,0-1.1,0-1.5,0-2.3,0-4.4.2-6.2.6-1.9.4-3.4.8-4.7,1.3h-.2v26.9h6.9v-22.3c.3,0,.8-.2,1.5-.3.8-.1,1.5-.2,2.2-.2,1.2,0,2.3,0,3.2.3s1.7.4,2.2.6h.2c0,0,1.2-5.8,1.2-5.8h-.2c-.3-.2-.8-.3-1.3-.4h0Z"></path><path class="st0" d="M439.4,36.4c-.9-1-2.1-1.8-3.6-2.3-1.5-.5-3.3-.8-5.4-.8s-3.5.1-5,.4c-1.6.3-2.8.6-3.6.9h-.2c0,0,.9,5.7.9,5.7h.3c.8-.4,1.8-.6,3-.8s2.6-.3,4.1-.3,2,.1,2.7.4c.7.3,1.2.6,1.7,1.1.4.5.7,1,.9,1.7.2.6.3,1.4.3,2.1v.8c-.8-.2-1.5-.3-2.2-.4-.8,0-1.6-.1-2.3-.1-1.5,0-3,.2-4.4.5-1.4.3-2.7.8-3.8,1.5-1.1.7-2,1.6-2.6,2.8-.6,1.1-1,2.5-1,4.1s.3,3.1.8,4.3c.6,1.2,1.4,2.1,2.3,2.8s2.2,1.3,3.6,1.6c1.4.3,2.9.5,4.6.5,2.5,0,4.8-.2,6.8-.5,2-.3,3.5-.6,4.5-.8h.2v-17.1c0-1.6-.2-3.2-.6-4.5-.4-1.4-1-2.6-1.9-3.6h0ZM435.2,50.2v6.8c-1,.2-2.4.3-4.3.3s-2.8-.3-3.8-.8c-.9-.5-1.3-1.5-1.3-3s.2-1.3.5-1.8c.3-.5.8-.9,1.3-1.1.6-.3,1.2-.5,1.9-.6.7-.1,1.4-.2,2.1-.2s1.5,0,2.2.2c.6,0,1,.2,1.4.3h0Z"></path><path class="st0" d="M455.3,23c-.8-.7-1.8-1.1-2.9-1.1s-2.1.4-3,1.1c-.8.8-1.2,1.8-1.2,3.1s.4,2.3,1.2,3c.8.7,1.8,1.1,3,1.1s2.1-.4,2.9-1.1c.8-.8,1.2-1.8,1.2-3s-.4-2.3-1.2-3.1Z"></path><rect class="st0" x="448.9" y="33.9" width="6.9" height="28.2"></rect><path class="st0" d="M485.7,41.1c-.4-1.6-1-3-2-4.1s-2.2-2-3.7-2.7c-1.6-.6-3.5-1-5.8-1s-4.6.2-6.6.5c-2,.3-3.6.7-4.9,1h-.2v27.3h6.9v-22.4c.4,0,1-.1,1.8-.2.9-.1,1.7-.2,2.5-.2s2,.2,2.7.4c.7.3,1.3.7,1.7,1.4.4.6.7,1.5.9,2.5.2,1,.3,2.3.3,3.7v14.8h6.9v-15.8c0-1.9-.2-3.6-.6-5.2h0s0,0,0,0Z"></path></g></g></svg>